# xmcd
#
# Track frame offsets: 
#        150
#        19573
#        43401
#        64947
#        95488
#        114966
#        124538
#        147009
#        171912
#        190642
#        209615
#
# Disc length: 3149 seconds
#
# Revision: 0
# Processed by: cddbd v1.5.2PL0 Copyright (c) Steve Scherf et al.
# Submitted via: ExactAudioCopy v0.99pb5
#
DISCID=970c4b0b
DTITLE=Jason Isbell and the 400 Unit - Jason Isbell and the 400 Unit
DYEAR=2009
DGENRE=Alt. Rock
TTITLE0=Seven-Mile Island
TTITLE1=Sunstroke
TTITLE2=Good
TTITLE3=Cigarettes and Wine
TTITLE4=However Long
TTITLE5=Coda
TTITLE6=The Blue
TTITLE7=No Choice in the Matter
TTITLE8=Soldiers Get Strange
TTITLE9=Streetlights
TTITLE10=The Last Song I Will Write
EXTD=
EXTT0=
EXTT1=
EXTT2=
EXTT3=
EXTT4=
EXTT5=
EXTT6=
EXTT7=
EXTT8=
EXTT9=
EXTT10=
PLAYORDER=
